<svg width="24" height="24" viewBox="0 0 24 24" fill="none" xmlns="http://www.w3.org/2000/svg">
<path d="M13.3334 5.33331H8.00008C7.64646 5.33331 7.30732 5.47379 7.05727 5.72384C6.80722 5.97389 6.66675 6.31302 6.66675 6.66665V17.3333C6.66675 17.6869 6.80722 18.0261 7.05727 18.2761C7.30732 18.5262 7.64646 18.6666 8.00008 18.6666H16.0001C16.3537 18.6666 16.6928 18.5262 16.9429 18.2761C17.1929 18.0261 17.3334 17.6869 17.3334 17.3333V9.33331L13.3334 5.33331Z" stroke="#292929" stroke-width="1.5" stroke-linecap="round" stroke-linejoin="round"/>
<path d="M13.3333 5.33331V9.33331H17.3333" stroke="#292929" stroke-width="1.5" stroke-linecap="round" stroke-linejoin="round"/>
<path d="M14.6666 12.6667H9.33325" stroke="#292929" stroke-width="1.5" stroke-linecap="round" stroke-linejoin="round"/>
<path d="M14.6666 15.3333H9.33325" stroke="#292929" stroke-width="1.5" stroke-linecap="round" stroke-linejoin="round"/>
<path d="M10.6666 10H9.99992H9.33325" stroke="#292929" stroke-width="1.5" stroke-linecap="round" stroke-linejoin="round"/>
</svg>
